Coordinates
version=1
nRows=54
nColumns=12
inDegrees=yes

Units are S.I. units (second, meters, Newtons, ...)
Angles are in degrees

endheader
time	SC_y	SC_z	SC_x	AC_y	AC_z	AC_x	GH_y	GH_z	GH_yy	EL_x	PS_y
       0.0              -15.95          34.35           63.3           35.5          7.938         -9.503          47.55          48.88          11.16          96.88          67.83
  0.008248              -15.95          34.34          63.29           35.5          7.935         -9.499          47.55          48.89          11.16          96.89          67.83
    0.0165              -15.96          34.34          63.29           35.5          7.932         -9.496          47.56          48.89          11.16          96.89          67.82
   0.02475              -15.96          34.33          63.28          35.51          7.929         -9.492          47.56          48.89          11.15          96.89          67.82
   0.03299              -15.97          34.33          63.26          35.51          7.925         -9.488          47.57          48.89          11.15           96.9          67.82
   0.04124              -15.97          34.32          63.25          35.51          7.921         -9.484          47.58          48.89          11.15          96.91          67.81
   0.04949              -15.98          34.31          63.24          35.51          7.918          -9.48          47.58          48.89          11.15          96.91          67.81
   0.05774              -15.99          34.31          63.23          35.51          7.913         -9.475          47.59          48.89          11.14          96.92           67.8
   0.06599              -15.99           34.3          63.21          35.52          7.909          -9.47           47.6          48.89          11.14          96.93           67.8
   0.07424               -16.0          34.29           63.2          35.52          7.904         -9.465          47.61          48.89          11.13          96.93          67.79
   0.08248              -16.01          34.28          63.18          35.52          7.899         -9.459          47.62          48.89          11.13          96.94          67.78
   0.09073              -16.02          34.27          63.17          35.52          7.893         -9.453          47.63          48.89          11.13          96.95          67.78
   0.09898              -16.03          34.26          63.15          35.53          7.887         -9.446          47.64           48.9          11.12          96.96          67.77
    0.1072              -16.04          34.25          63.13          35.53          7.881         -9.439          47.65           48.9          11.12          96.97          67.76
    0.1155              -16.05          34.24          63.11          35.53          7.874         -9.431          47.66           48.9          11.11          96.98          67.75
    0.1237              -16.07          34.22          63.08          35.54          7.867         -9.422          47.68           48.9           11.1          96.99          67.74
     0.132              -16.08          34.21          63.06          35.54          7.858         -9.413          47.69           48.9           11.1          97.01          67.73
    0.1402               -16.1          34.19          63.03          35.54          7.849         -9.403          47.71           48.9          11.09          97.02          67.72
    0.1485              -16.11          34.18           63.0          35.55           7.84         -9.391          47.73          48.91          11.08          97.04          67.71
    0.1567              -16.13          34.16          62.97          35.55          7.829         -9.379          47.75          48.91          11.07          97.05          67.69
     0.165              -16.15          34.14          62.93          35.56          7.817         -9.366          47.77          48.91          11.06          97.07          67.68
    0.1732              -16.17          34.12          62.89          35.56          7.804         -9.351          47.79          48.91          11.05          97.09          67.66
    0.1815               -16.2          34.09          62.85          35.57           7.79         -9.335          47.82          48.92          11.04          97.11          67.64
    0.1897              -16.23          34.06           62.8          35.58          7.774         -9.317          47.85          48.92          11.03          97.14          67.62
     0.198              -16.26          34.03          62.74          35.59          7.756         -9.297          47.88          48.92          11.01          97.17           67.6
    0.2062              -16.29           34.0          62.68           35.6          7.737         -9.275          47.92          48.93          10.99           97.2          67.58
    0.2145              -16.33          33.96          62.61          35.61          7.715          -9.25          47.96          48.93          10.98          97.23          67.55
    0.2227              -16.37          33.92          62.54          35.62           7.69         -9.222          48.01          48.94          10.96          97.27          67.52
     0.231              -16.42          33.87          62.45          35.63          7.662          -9.19          48.06          48.95          10.93          97.32          67.48
    0.2392              -16.47          33.81          62.35          35.64           7.63         -9.154          48.12          48.95          10.91          97.37          67.44
    0.2475              -16.53          33.75          62.24          35.66          7.594         -9.113          48.19          48.96          10.88          97.42          67.39
    0.2557              -16.61          33.68          62.11          35.68          7.553         -9.066          48.26          48.97          10.84          97.49          67.34
    0.2639              -16.69          33.59          61.96           35.7          7.505         -9.012          48.35          48.98           10.8          97.56          67.28
    0.2722              -16.78           33.5          61.79          35.73          7.449         -8.948          48.46          48.99          10.75          97.65          67.21
    0.2804               -16.9          33.38          61.59          35.76          7.384         -8.874          48.58          49.01           10.7          97.76          67.13
    0.2887              -17.03          33.25          61.35          35.79          7.307         -8.787          48.72          49.03          10.64          97.88          67.03
    0.2969              -17.18          33.09          61.06          35.84          7.215         -8.683          48.89          49.05          10.56          98.02          66.91
    0.3052              -17.37           32.9          60.72          35.89          7.106         -8.559          49.09          49.07          10.47          98.19          66.77
    0.3134               -17.6          32.67          60.31          35.95          6.973         -8.409          49.34           49.1          10.36           98.4           66.6
    0.3217              -17.88          32.38          59.81          36.03          6.811         -8.225          49.64          49.14          10.22          98.66           66.4
    0.3299              -18.22          32.04          59.19          36.12          6.611         -7.998          50.01          49.18          10.06          98.97          66.14
    0.3382              -18.65           31.6          58.42          36.23          6.362         -7.716          50.48          49.24          9.848          99.37          65.82
    0.3464              -19.19          31.05          57.44          36.38          6.048         -7.359          51.06          49.31          9.587          99.86          65.42
    0.3547              -19.87          30.36           56.2          36.56          5.649         -6.907           51.8          49.39          9.254          100.5          64.91
    0.3629              -20.75          29.47          54.62           36.8          5.138         -6.327          52.75          49.51          8.828          101.3          64.26
    0.3712              -21.87          28.32          52.59          37.11          4.482         -5.584          53.97          49.65          8.281          102.3          63.43
    0.3794              -23.31          26.86          49.99           37.5          3.645         -4.634          55.53          49.84          7.583          103.7          62.36
    0.3877              -25.12          25.03          46.72          37.98          2.592         -3.439          57.49          50.08          6.705          105.3          61.02
    0.3959              -27.32          22.79          42.74          38.58          1.309         -1.984          59.87          50.36          5.635          107.3          59.38
    0.4042              -29.87           20.2          38.13          39.27        -0.1786        -0.2966          62.64          50.69          4.394          109.7          57.48
    0.4124              -32.63          17.39          33.13          40.02         -1.789           1.53          65.63          51.05          3.051          112.2          55.43
    0.4207               -35.4          14.58          28.14          40.77           -3.4          3.357          68.63          51.41          1.708          114.8          53.38
    0.4289              -37.95          11.99          23.52          41.46         -4.887          5.044          71.39          51.74          0.468          117.1          51.48
    0.4372              -40.15           9.75          19.54          42.05          -6.17            6.5          73.78          52.03         -0.602          119.2          49.85
